<svg width="12" height="12" viewBox="0 0 12 12" fill="none" xmlns="http://www.w3.org/2000/svg">
<path fill-rule="evenodd" clip-rule="evenodd" d="M6.00081 0C4.37129 0 4.16679 0.007125 3.52678 0.03625C2.88802 0.0655 2.45202 0.166625 2.07052 0.315C1.67589 0.46825 1.34113 0.67325 1.00763 1.00688C0.673876 1.34038 0.468874 1.67512 0.315122 2.06962C0.166371 2.45125 0.0651198 2.88738 0.0363695 3.52588C0.00774422 4.16587 0.000244141 4.3705 0.000244141 6C0.000244141 7.6295 0.00749422 7.83337 0.0364945 8.47337C0.0658698 9.11212 0.166996 9.54813 0.315247 9.92963C0.468624 10.3243 0.673626 10.659 1.00725 10.9925C1.34063 11.3263 1.67539 11.5318 2.06977 11.685C2.45152 11.8334 2.88765 11.9345 3.52628 11.9637C4.16629 11.9929 4.37067 12 6.00006 12C7.6297 12 7.83358 11.9929 8.47358 11.9637C9.11234 11.9345 9.54884 11.8334 9.9306 11.685C10.3251 11.5318 10.6594 11.3263 10.9927 10.9925C11.3265 10.659 11.5315 10.3243 11.6852 9.92975C11.8327 9.54813 11.934 9.112 11.964 8.4735C11.9927 7.8335 12.0002 7.6295 12.0002 6C12.0002 4.3705 11.9927 4.166 11.964 3.526C11.934 2.88725 11.8327 2.45125 11.6852 2.06975C11.5315 1.67513 11.3265 1.34038 10.9927 1.00688C10.659 0.673125 10.3252 0.468125 9.93022 0.315C9.54772 0.166625 9.11146 0.0655 8.47271 0.03625C7.8327 0.007125 7.62895 0 5.99893 0H6.00081ZM5.46252 1.08123C5.62228 1.08098 5.80053 1.08123 6.00078 1.08123C7.6028 1.08123 7.79267 1.08698 8.42531 1.11573C9.01031 1.14248 9.32781 1.24023 9.53932 1.32236C9.81932 1.43111 10.0189 1.56111 10.2288 1.77111C10.4388 1.98111 10.5688 2.18111 10.6778 2.46111C10.76 2.67236 10.8578 2.98986 10.8845 3.57486C10.9132 4.20736 10.9195 4.39736 10.9195 5.99861C10.9195 7.59986 10.9132 7.78986 10.8845 8.42236C10.8577 9.00736 10.76 9.32486 10.6778 9.53611C10.5691 9.81611 10.4388 10.0155 10.2288 10.2254C10.0188 10.4354 9.81944 10.5654 9.53932 10.6741C9.32806 10.7566 9.01031 10.8541 8.42531 10.8809C7.7928 10.9096 7.6028 10.9159 6.00078 10.9159C4.39864 10.9159 4.20876 10.9096 3.57626 10.8809C2.99125 10.8539 2.67375 10.7561 2.46212 10.674C2.18212 10.5652 1.98211 10.4352 1.77211 10.2252C1.56211 10.0152 1.43211 9.81573 1.32311 9.53561C1.24098 9.32436 1.14311 9.00686 1.11648 8.42186C1.08773 7.78936 1.08198 7.59936 1.08198 5.99711C1.08198 4.39486 1.08773 4.20586 1.11648 3.57336C1.14323 2.98836 1.24098 2.67086 1.32311 2.45936C1.43186 2.17936 1.56211 1.97936 1.77211 1.76936C1.98211 1.55936 2.18212 1.42936 2.46212 1.32036C2.67362 1.23786 2.99125 1.14036 3.57626 1.11348C4.12976 1.08848 4.34426 1.08098 5.46252 1.07973V1.08123ZM9.20357 2.07749C8.80606 2.07749 8.48356 2.39961 8.48356 2.79724C8.48356 3.19474 8.80606 3.51724 9.20357 3.51724C9.60107 3.51724 9.92357 3.19474 9.92357 2.79724C9.92357 2.39974 9.60107 2.07749 9.20357 2.07749ZM6.00082 2.91873C4.29917 2.91873 2.91953 4.29836 2.91953 5.99998C2.91953 7.70161 4.29917 9.08061 6.00082 9.08061C7.70246 9.08061 9.0816 7.70161 9.0816 5.99998C9.0816 4.29836 7.70246 2.91873 6.00082 2.91873ZM6.00079 3.99998C7.1053 3.99998 8.00081 4.89536 8.00081 5.99998C8.00081 7.10448 7.1053 7.99998 6.00079 7.99998C4.89616 7.99998 4.00077 7.10448 4.00077 5.99998C4.00077 4.89536 4.89616 3.99998 6.00079 3.99998Z" fill="#A7A7A7"/>
</svg>