<svg width="21" height="23" viewBox="0 0 21 23" fill="none" xmlns="http://www.w3.org/2000/svg">
    <path d="M18.375 10.4418C18.375 16.4972 10.5 21.6875 10.5 21.6875C10.5 21.6875 2.625 16.4972 2.625 10.4418C2.625 8.37692 3.45469 6.39664 4.93153 4.93657C6.40838 3.47651 8.41142 2.65625 10.5 2.65625C12.5886 2.65625 14.5916 3.47651 16.0685 4.93657C17.5453 6.39664 18.375 8.37692 18.375 10.4418Z" stroke="#3D69B7" stroke-width="2" stroke-linecap="round" stroke-linejoin="round" />
    <path d="M10.5 13.1563C11.9497 13.1563 13.125 11.981 13.125 10.5313C13.125 9.0815 11.9497 7.90625 10.5 7.90625C9.05025 7.90625 7.875 9.0815 7.875 10.5313C7.875 11.981 9.05025 13.1563 10.5 13.1563Z" stroke="#3D69B7" stroke-width="2" stroke-linecap="round" stroke-linejoin="round" />
</svg>
    