<svg width="34" height="20" viewBox="0 0 34 20" fill="none" xmlns="http://www.w3.org/2000/svg">
<path d="M34.0008 10.0001C34.0008 15.4874 29.45 20.0002 23.8007 20.0002C18.2037 20.0002 13.6006 15.4874 13.6006 10.0001C13.6006 4.51287 18.1514 0 23.7484 0C29.45 0 34.0008 4.51287 34.0008 10.0001Z" fill="#F9B50B"/>
<path d="M20.3479 10.0514C20.3479 9.33344 20.2433 8.61548 20.1387 7.94881H13.8617C13.914 7.58983 14.0186 7.28214 14.1232 6.87187H19.7202C19.6156 6.5129 19.4587 6.15392 19.3018 5.79494H14.5417C14.6986 5.43596 14.9079 5.12826 15.1171 4.718H18.7264C18.5171 4.35902 18.2556 4.00005 17.9417 3.64107H15.954C16.2679 3.28209 16.5817 2.97439 17.0002 2.61541C15.2217 0.97437 12.8155 0 10.1478 0C4.60313 0.153848 0 4.51287 0 10.0001C0 15.4874 4.55082 20.0002 10.2001 20.0002C12.8678 20.0002 15.2217 18.9746 17.0525 17.3848C17.4187 17.0771 17.7325 16.7181 18.0987 16.3079H16.0063C15.7448 16.0002 15.4833 15.6412 15.274 15.2822H18.831C19.0402 14.9745 19.2495 14.6156 19.4064 14.2053H14.6463C14.4894 13.8976 14.3325 13.5386 14.2279 13.1284H19.8248C20.1387 12.2053 20.3479 11.1796 20.3479 10.0514Z" fill="#C8191C"/>
<path d="M13.8095 12.5644L13.9664 11.6413C13.9141 11.6413 13.8095 11.6926 13.7049 11.6926C13.3387 11.6926 13.2864 11.4875 13.3387 11.3849L13.6526 9.53875H14.228L14.3849 8.5131H13.8618L13.9664 7.89771H12.8679C12.8679 7.89771 12.2402 11.3849 12.2402 11.7952C12.2402 12.4106 12.6064 12.7183 13.1295 12.7183C13.4433 12.7183 13.7049 12.6157 13.8095 12.5644Z" fill="white"/>
<path d="M14.1758 10.8719C14.1758 12.3591 15.2219 12.718 16.0589 12.718C16.8435 12.718 17.2097 12.5642 17.2097 12.5642L17.4189 11.5385C17.4189 11.5385 16.8435 11.795 16.2681 11.795C15.065 11.795 15.2743 10.9232 15.2743 10.9232H17.4712C17.4712 10.9232 17.6281 10.2565 17.6281 9.94878C17.6281 9.28211 17.262 8.4103 16.0589 8.4103C15.0127 8.35902 14.1758 9.53852 14.1758 10.8719ZM16.0589 9.33339C16.6343 9.33339 16.5297 10.0001 16.5297 10.0513H15.3266C15.3789 10.0001 15.4835 9.33339 16.0589 9.33339Z" fill="white"/>
<path d="M22.9103 12.5643L23.1195 11.3848C23.1195 11.3848 22.5964 11.6412 22.178 11.6412C21.4457 11.6412 21.0795 11.0771 21.0795 10.4104C21.0795 9.12838 21.7072 8.4617 22.4918 8.4617C23.0149 8.4617 23.4857 8.7694 23.4857 8.7694L23.6426 7.64118C23.6426 7.64118 23.0149 7.38477 22.3872 7.38477C21.1318 7.38477 19.9287 8.4617 19.9287 10.4617C19.9287 11.7951 20.5564 12.6669 21.8641 12.6669C22.3349 12.7182 22.9103 12.5643 22.9103 12.5643Z" fill="white"/>
<path d="M7.89842 8.35889C7.16611 8.35889 6.59071 8.56402 6.59071 8.56402L6.43379 9.48711C6.43379 9.48711 6.90456 9.28197 7.63688 9.28197C8.00304 9.28197 8.31689 9.33326 8.31689 9.64095C8.31689 9.84608 8.26458 9.89737 8.26458 9.89737H7.79381C6.85226 9.89737 5.8584 10.2563 5.8584 11.4871C5.8584 12.4615 6.4861 12.6666 6.90456 12.6666C7.63688 12.6666 8.00304 12.2051 8.05535 12.2051L8.00304 12.6153H8.89228L9.31075 9.69224C9.31075 8.41017 8.26458 8.35889 7.89842 8.35889ZM8.10766 10.7179C8.10766 10.8717 8.00304 11.7435 7.37534 11.7435C7.06149 11.7435 6.95687 11.4871 6.95687 11.3333C6.95687 11.0769 7.1138 10.7179 7.95073 10.7179C8.05535 10.7179 8.10766 10.7179 8.10766 10.7179Z" fill="white"/>
<path d="M10.3565 12.6666C10.6181 12.6666 11.9781 12.7179 11.9781 11.282C11.9781 9.94866 10.6704 10.2051 10.6704 9.69225C10.6704 9.43583 10.8796 9.33327 11.2458 9.33327C11.4027 9.33327 11.9781 9.38455 11.9781 9.38455L12.135 8.41018C12.135 8.41018 11.7689 8.30762 11.0889 8.30762C10.3042 8.30762 9.4673 8.61531 9.4673 9.69225C9.4673 10.923 10.8273 10.8205 10.8273 11.282C10.8273 11.5897 10.4612 11.641 10.1996 11.641C9.72884 11.641 9.20575 11.4871 9.20575 11.4871L9.04883 12.4615C9.15344 12.5641 9.46729 12.6666 10.3565 12.6666Z" fill="white"/>
<path d="M31.9075 7.53833L31.6982 8.97424C31.6982 8.97424 31.2798 8.46142 30.6521 8.46142C29.6582 8.46142 28.8213 9.64092 28.8213 11.0255C28.8213 11.8974 29.2398 12.7692 30.1813 12.7692C30.809 12.7692 31.2275 12.3589 31.2275 12.3589L31.1752 12.7179H32.2736L33.0583 7.6409L31.9075 7.53833ZM31.3844 10.3076C31.3844 10.8717 31.1229 11.6409 30.4952 11.6409C30.129 11.6409 29.9198 11.3332 29.9198 10.7691C29.9198 9.89733 30.2859 9.38451 30.809 9.38451C31.1752 9.43579 31.3844 9.6922 31.3844 10.3076Z" fill="white"/>
<path d="M1.98757 12.6153L2.61527 8.8204L2.71989 12.6153H3.4522L4.86453 8.8204L4.28914 12.6153H5.43992L6.32916 7.53833H4.55068L3.4522 10.6666L3.3999 7.53833H1.83065L0.941406 12.6153H1.98757Z" fill="white"/>
<path d="M18.7275 12.6156C19.0414 10.872 19.0937 9.43604 19.8783 9.69245C19.9829 9.02578 20.1398 8.71808 20.2444 8.46167H20.0352C19.5644 8.46167 19.146 9.07706 19.146 9.07706L19.2506 8.51295H18.2044L17.5244 12.6156H18.7275Z" fill="white"/>
<path d="M25.4219 8.35889C24.6895 8.35889 24.1142 8.56402 24.1142 8.56402L23.9572 9.48711C23.9572 9.48711 24.428 9.28197 25.1603 9.28197C25.5265 9.28197 25.8403 9.33326 25.8403 9.64095C25.8403 9.84608 25.788 9.89737 25.788 9.89737H25.3172C24.3757 9.89737 23.3818 10.2563 23.3818 11.4871C23.3818 12.4615 24.0095 12.6666 24.428 12.6666C25.1603 12.6666 25.5265 12.2051 25.5788 12.2051L25.5265 12.6153H26.5203L26.9388 9.69224C26.9388 8.41017 25.788 8.35889 25.4219 8.35889ZM25.6834 10.7179C25.6834 10.8717 25.5788 11.7435 24.9511 11.7435C24.6372 11.7435 24.5326 11.4871 24.5326 11.3333C24.5326 11.0769 24.6895 10.7179 25.5265 10.7179C25.6311 10.7179 25.6311 10.7179 25.6834 10.7179Z" fill="white"/>
<path d="M27.7754 12.6156C28.0892 10.872 28.1415 9.43604 28.9261 9.69245C29.0308 9.02578 29.1877 8.71808 29.2923 8.46167H29.0831C28.6123 8.46167 28.1938 9.07706 28.1938 9.07706L28.2984 8.51295H27.2523L26.5723 12.6156H27.7754Z" fill="white"/>
</svg>