<svg width="55" height="54" viewBox="0 0 55 54" fill="none" xmlns="http://www.w3.org/2000/svg">
    <g clip-path="url(#clip0_738_9548)">
        <path d="M22.5 41C23.3284 41 24 40.3284 24 39.5C24 38.6716 23.3284 38 22.5 38C21.6716 38 21 38.6716 21 39.5C21 40.3284 21.6716 41 22.5 41Z" stroke="white" stroke-width="2" stroke-linecap="round" stroke-linejoin="round" />
        <path d="M36.5 41C37.3284 41 38 40.3284 38 39.5C38 38.6716 37.3284 38 36.5 38C35.6716 38 35 38.6716 35 39.5C35 40.3284 35.6716 41 36.5 41Z" stroke="white" stroke-width="2" stroke-linecap="round" stroke-linejoin="round" />
        <path d="M11 12H16.2727L19.8055 29.8529C19.926 30.4667 20.2562 31.0181 20.7381 31.4106C21.2201 31.803 21.8232 32.0115 22.4418 31.9995H35.2545C35.8732 32.0115 36.4763 31.803 36.9582 31.4106C37.4402 31.0181 37.7704 30.4667 37.8909 29.8529L40 18.6665H17.5909" stroke="white" stroke-width="2" stroke-linecap="round" stroke-linejoin="round" />
    </g>
    <rect x="0.667239" y="0.667239" width="53.6655" height="52.6655" rx="26.3328" stroke="none" stroke-width="1.33448" />
    <defs>
        <clipPath id="clip0_738_9548">
            <rect width="32" height="32" fill="none" transform="translate(10 12)" />
        </clipPath>
    </defs>
</svg>