<svg width="11" height="7" viewBox="0 0 11 7" fill="none" xmlns="http://www.w3.org/2000/svg">
    <path d="M9.46731 4.19658C9.8322 4.57429 10.2173 4.92966 10.5446 5.34545C10.6891 5.53022 10.826 5.7209 10.9307 5.93533C11.0791 6.24015 10.9447 6.57559 10.6869 6.59379L9.08439 6.59303C8.67108 6.62939 8.34136 6.45297 8.06412 6.15336C7.84225 5.91375 7.63679 5.65874 7.42344 5.41105C7.33598 5.30981 7.24443 5.21455 7.13507 5.13926C6.91631 4.9887 6.72642 5.0348 6.60141 5.27671C6.47408 5.52275 6.4452 5.7952 6.4327 6.0694C6.41553 6.46949 6.30147 6.57467 5.92242 6.59299C5.11234 6.63349 4.34354 6.50355 3.62935 6.07029C2.9997 5.68833 2.51143 5.14911 2.08644 4.53865C1.25898 3.34997 0.625314 2.0438 0.0557979 0.70104C-0.0723957 0.398514 0.0213551 0.236119 0.336183 0.230372C0.858969 0.219604 1.38168 0.220371 1.90508 0.229605C2.11756 0.232901 2.25822 0.362111 2.34026 0.574933C2.6231 1.3123 2.96919 2.01384 3.40361 2.6641C3.5193 2.83723 3.63727 3.01035 3.80525 3.1322C3.99109 3.26712 4.13259 3.22241 4.22001 3.00292C4.27549 2.86374 4.29978 2.71384 4.31228 2.56478C4.3537 2.05196 4.35916 1.54003 4.28651 1.02901C4.24191 0.710083 4.07248 0.503622 3.77233 0.44327C3.61916 0.4125 3.64197 0.352072 3.71613 0.259379C3.84494 0.0995135 3.96608 0 4.20758 0H6.01866C6.30378 0.0596621 6.3671 0.195463 6.40613 0.499637L6.40769 2.63257C6.40458 2.75032 6.46316 3.09975 6.66321 3.17769C6.82331 3.23317 6.92885 3.09737 7.02491 2.98974C7.45854 2.50179 7.76801 1.92513 8.0445 1.32801C8.1672 1.06545 8.27269 0.792774 8.37494 0.520329C8.45069 0.31816 8.56956 0.218684 8.78435 0.223091L10.5274 0.224739C10.5791 0.224739 10.6314 0.225544 10.6814 0.234625C10.9752 0.287696 11.0557 0.421658 10.9649 0.725755C10.822 1.20286 10.5439 1.60045 10.272 1.99989C9.98128 2.42634 9.67039 2.83818 9.38213 3.26716C9.11728 3.65889 9.13832 3.85635 9.46731 4.19658Z" fill="#A7A7A7"/>
    </svg>