
<svg width="18" height="18" viewBox="0 0 18 18" fill="none" xmlns="http://www.w3.org/2000/svg">
<path d="M12.1887 2.6267C12.3824 2.42801 12.6124 2.2704 12.8655 2.16287C13.1186 2.05534 13.3899 2 13.6638 2C13.9378 2 14.2091 2.05534 14.4622 2.16287C14.7153 2.2704 14.9453 2.42801 15.139 2.6267C15.3327 2.82538 15.4864 3.06126 15.5912 3.32086C15.696 3.58045 15.75 3.85869 15.75 4.13968C15.75 4.42066 15.696 4.6989 15.5912 4.95849C15.4864 5.21809 15.3327 5.45397 15.139 5.65266L5.18168 15.8653L1.125 17L2.23137 12.8393L12.1887 2.6267Z" stroke="#BFBFBF" stroke-width="1.5" stroke-linecap="round" stroke-linejoin="round"/>
</svg>
