<svg width="20" height="21" viewBox="0 0 20 21" fill="none" xmlns="http://www.w3.org/2000/svg">
<g clip-path="url(#clip0_475_5662)">
<path d="M11.7668 12.5381C11.538 12.7837 11.262 12.9807 10.9553 13.1174C10.6486 13.254 10.3176 13.3275 9.9819 13.3334C9.64623 13.3393 9.3128 13.2776 9.0015 13.1518C8.69021 13.0261 8.40743 12.8389 8.17003 12.6016C7.93264 12.3642 7.74549 12.0814 7.61975 11.7701C7.49402 11.4588 7.43227 11.1254 7.43819 10.7897C7.44411 10.454 7.51759 10.123 7.65423 9.8163C7.79087 9.50963 7.98787 9.23363 8.23349 9.00476M14.9502 15.7214C13.5257 16.8073 11.7911 17.4088 10.0002 17.4381C4.16683 17.4381 0.833496 10.7714 0.833496 10.7714C1.87007 8.83967 3.30778 7.15193 5.05016 5.82142L14.9502 15.7214ZM8.25016 4.30476C8.82377 4.17049 9.41105 4.10337 10.0002 4.10476C15.8335 4.10476 19.1668 10.7714 19.1668 10.7714C18.661 11.7178 18.0577 12.6087 17.3668 13.4298L8.25016 4.30476Z" stroke="#BFBFBF" stroke-width="1.5" stroke-linecap="round" stroke-linejoin="round"/>
<path d="M0.833496 1.60474L19.1668 19.9381" stroke="#BFBFBF" stroke-width="1.5" stroke-linecap="round" stroke-linejoin="round"/>
</g>
<defs>
<clipPath id="clip0_475_5662">
<rect width="20" height="20" fill="white" transform="translate(0 0.771484)"/>
</clipPath>
</defs>
</svg>
