<svg width="38" height="12" viewBox="0 0 38 12" fill="none" xmlns="http://www.w3.org/2000/svg">
<path d="M34.0942 0H26.7783C27.2045 2.41495 29.5484 4.68785 32.1054 4.68785H37.9297C38.0008 4.47477 38.0007 4.11963 38.0007 3.90654C38.0007 1.7757 36.225 0 34.0942 0Z" fill="url(#paint0_linear_565_7465)"/>
<path d="M27.418 5.11401V11.0093H30.9694V7.8841H34.0946C35.7993 7.8841 37.2909 6.67663 37.7881 5.11401H27.418Z" fill="#4FAD50"/>
<path d="M14.917 0V10.9383H18.0422C18.0422 10.9383 18.8235 10.9383 19.2497 10.157C21.3805 5.96636 22.0198 4.68785 22.0198 4.68785H22.446V10.9383H25.9974V0H22.8721C22.8721 0 22.0908 0.0710324 21.6647 0.781313C19.889 4.40374 18.8946 6.25047 18.8946 6.25047H18.4684V0H14.917Z" fill="#4FAD50"/>
<path d="M0.000976562 11.0094V0.0710449H3.55238C3.55238 0.0710449 4.54678 0.0710427 5.115 1.63366C6.53556 5.75329 6.67763 6.32151 6.67763 6.32151C6.67763 6.32151 6.96173 5.32712 8.24023 1.63366C8.80846 0.0710427 9.80286 0.0710449 9.80286 0.0710449H13.3543V11.0094H9.80286V5.11404H9.37669L7.38791 11.0094H5.82528L3.83651 5.11404H3.41034V11.0094H0.000976562Z" fill="#4FAD50"/>
<defs>
<linearGradient id="paint0_linear_565_7465" x1="26.7657" y1="2.37752" x2="37.9756" y2="2.37752" gradientUnits="userSpaceOnUse">
<stop stop-color="#27B1E6"/>
<stop offset="1" stop-color="#148ACA"/>
</linearGradient>
</defs>
</svg>
