<svg width="13" height="13" viewBox="0 0 13 13" fill="none" xmlns="http://www.w3.org/2000/svg">
<g clip-path="url(#clip0_1457_10750)">
<path d="M0.541992 2.1665V5.4165H3.79199" stroke="#20598E" stroke-width="1.5" stroke-linecap="round" stroke-linejoin="round"/>
<path d="M12.458 10.8335V7.5835H9.20801" stroke="#20598E" stroke-width="1.5" stroke-linecap="round" stroke-linejoin="round"/>
<path d="M11.0991 4.87494C10.8244 4.09861 10.3575 3.40453 9.74195 2.85746C9.12643 2.31038 8.38236 1.92815 7.57917 1.74641C6.77598 1.56468 5.93983 1.58937 5.14876 1.81819C4.35769 2.04701 3.63748 2.47249 3.05533 3.05494L0.541992 5.41661M12.4587 7.58327L9.94532 9.94494C9.36317 10.5274 8.64296 10.9529 7.85189 11.1817C7.06082 11.4105 6.22467 11.4352 5.42148 11.2535C4.61829 11.0717 3.87422 10.6895 3.2587 10.1424C2.64319 9.59534 2.17629 8.90126 1.90158 8.12494" stroke="#20598E" stroke-width="1.5" stroke-linecap="round" stroke-linejoin="round"/>
</g>
<defs>
<clipPath id="clip0_1457_10750">
<rect width="13" height="13" fill="white"/>
</clipPath>
</defs>
</svg>
