<svg width="41" height="13" viewBox="0 0 41 13" fill="none" xmlns="http://www.w3.org/2000/svg">
<path d="M38.2436 0.179932H35.6662C34.8869 0.179932 34.2875 0.419696 33.9279 1.19893L29.0127 12.4079H32.4893C32.4893 12.4079 33.0887 10.9094 33.2086 10.5498C33.5682 10.5498 36.9849 10.5498 37.4644 10.5498C37.5843 10.9693 37.884 12.348 37.884 12.348H41.0009L38.2436 0.179932ZM34.1676 8.03223C34.4673 7.31293 35.4863 4.61558 35.4863 4.61558C35.4863 4.67552 35.786 3.89628 35.9059 3.4767L36.1457 4.55564C36.1457 4.55564 36.805 7.49276 36.9249 8.09217H34.1676V8.03223Z" fill="#3362AB"/>
<path d="M29.2523 8.39176C29.2523 10.9093 26.9746 12.5876 23.438 12.5876C21.9395 12.5876 20.5009 12.2879 19.7217 11.9283L20.2012 9.171L20.6208 9.35082C21.6997 9.83035 22.419 10.0102 23.7377 10.0102C24.6968 10.0102 25.7158 9.65053 25.7158 8.81135C25.7158 8.27188 25.2962 7.91224 23.9775 7.31282C22.7187 6.71341 21.0404 5.75435 21.0404 4.01606C21.0404 1.61841 23.3781 0 26.6749 0C27.9336 0 29.0126 0.239765 29.6719 0.539471L29.1924 3.17688L28.9526 2.93712C28.3532 2.69735 27.574 2.45759 26.4351 2.45759C25.1763 2.51753 24.5769 3.057 24.5769 3.53653C24.5769 4.076 25.2962 4.49559 26.4351 5.03506C28.3532 5.93418 29.2523 6.95318 29.2523 8.39176Z" fill="#3362AB"/>
<path d="M0.000976562 0.299823L0.0609177 0.0600586H5.21586C5.93515 0.0600586 6.47462 0.299823 6.65445 1.07906L7.79333 6.47376C6.65445 3.59659 4.01704 1.25888 0.000976562 0.299823Z" fill="#F9B50B"/>
<path d="M15.0463 0.179814L9.83144 12.3479H6.29491L3.29785 2.15787C5.45573 3.53652 7.25397 5.6944 7.91332 7.19293L8.27297 8.4517L11.5098 0.119873H15.0463V0.179814Z" fill="#3362AB"/>
<path d="M16.4251 0.119873H19.7219L17.6239 12.3479H14.3271L16.4251 0.119873Z" fill="#3362AB"/>
</svg>
